<?xml version="1.0" encoding="utf-8"?>
<!-- Generator: Adobe Illustrator 22.0.1, SVG Export Plug-In . SVG Version: 6.00 Build 0)  -->
<svg version="1.1" id="Layer_1" xmlns="http://www.w3.org/2000/svg" xmlns:xlink="http://www.w3.org/1999/xlink" x="0px" y="0px"
	 viewBox="0 0 1280 250" style="enable-background:new 0 0 1280 250;" xml:space="preserve">
<style type="text/css">
	.st0{fill:#233042;}
	.st1{fill:#FFFFFF;}
</style>
<rect x="-60" y="-19" class="st0" width="1372" height="330"/>
<path class="st1" d="M227.7,28.5v192.3h180.1V28.5H227.7z M288.2,76.5h60v94.7h-60V76.5z"/>
<polygon class="st1" points="565.5,28.5 565.5,126.7 503.8,28.5 444.6,28.5 444.6,220.9 503.8,220.9 503.8,122.7 565.5,220.9 
	624.7,220.9 624.7,28.5 "/>
<polygon class="st1" points="1044,28 984.8,28 984.8,86.3 923.9,86.3 923.9,28 863.9,28 863.9,124.7 923.4,124.7 863.9,220.9 
	923.9,220.9 954,172.5 983.1,220.9 1044,220.9 983.7,124.7 1044,124.7 "/>
<polygon class="st1" points="833.3,27.7 773.2,27.7 743.2,74.8 714,27.7 653.2,27.7 713.2,123.5 713.2,220.4 774.1,220.4 
	774.1,123.5 "/>
</svg>
